<?xml version="1.0" encoding="UTF-8" standalone="no"?>
<!-- Generator: Adobe Illustrator 21.1.0, SVG Export Plug-In . SVG Version: 6.00 Build 0)  -->

<svg
   version="1.1"
   id="Ebene_1"
   x="0px"
   y="0px"
   viewBox="0 0 195 71.1"
   style="enable-background:new 0 0 195 71.1;"
   xml:space="preserve"
   sodipodi:docname="birds.svg"
   inkscape:version="1.2.2 (1:1.2.2+202305151914+b0a8486541)"
   xmlns:inkscape="http://www.inkscape.org/namespaces/inkscape"
   xmlns:sodipodi="http://sodipodi.sourceforge.net/DTD/sodipodi-0.dtd"
   xmlns="http://www.w3.org/2000/svg"
   xmlns:svg="http://www.w3.org/2000/svg"
   xmlns:rdf="http://www.w3.org/1999/02/22-rdf-syntax-ns#"
   xmlns:cc="http://creativecommons.org/ns#"
   xmlns:dc="http://purl.org/dc/elements/1.1/"><defs
   id="defs18" /><sodipodi:namedview
   id="namedview16"
   pagecolor="#ffffff"
   bordercolor="#cccccc"
   borderopacity="1"
   inkscape:showpageshadow="0"
   inkscape:pageopacity="1"
   inkscape:pagecheckerboard="0"
   inkscape:deskcolor="#d1d1d1"
   showgrid="false"
   inkscape:zoom="3.9988981"
   inkscape:cx="94.150935"
   inkscape:cy="37.885436"
   inkscape:window-width="1366"
   inkscape:window-height="704"
   inkscape:window-x="0"
   inkscape:window-y="27"
   inkscape:window-maximized="1"
   inkscape:current-layer="b1" />
<style
   type="text/css"
   id="style2">
	.st0{fill:#131335;}
</style>
<title
   id="title4">birds</title>
<g
   id="b1">
	<path
   class="st0"
   d="M9.3,40.5c6.1-2.1,12.2-3.6,16.2-2.1s7.9,2.3,11.9,3.8c3,1.1,9.9,1.3,14.6-2.2c2.9-2.1,7.1-4.9,11.7,0   c-0.2-1.5-1.5-2.8-1.8-3.8c-0.4-1.4-0.3-2.2-1.8-3.8c-2.2-2.3-5.2-1.6-6.9-1.4c-3.2,0.4-3.5-1.9-2.9-4.4s11.5-22.2,9-24.2   C55.9,0,51.6-0.3,47.9,1.3c-5.4,2.5-16.6,15.3-19.5,18.5c-3.6,4-0.1,10.6-0.1,10.6s2.9,4.3-5.4,2.6C17.7,31.8,0,33.7,0,33.7   L9.3,40.5z"
   id="path6"
   style="fill:#ffffff;fill-opacity:1" />
</g>
<g
   id="b2"
   style="fill:#ffffff;fill-opacity:1">
	<path
   class="st0"
   d="M116.3,30.8c1.8,0.1,5.2-0.7,7,0.1c2,1,2.2,1.7,3.2,2.8c0.7,0.9,2.4,1.6,3.2,2.8c-4.8-2.1-9.6,1.3-10.2,1.8   c-1.3,1-2.3,2.4-2.8,4l0,0c-1.5,4-7.7,29.4-9.3,28.4c-2.5-1.5-7.3-4.9-8.6-8.3c-2.2-5.6-2.8-18.3-8.9-22.3C84,36.3,78,35,72.5,37.2   s-3.9-1.7-3.9-1.7s20.8-4.1,30.2-5.5S113.3,30.6,116.3,30.8z"
   id="path9"
   style="fill:#ffffff;fill-opacity:1" />
</g>
<g
   id="b3"
   style="fill:#ffffff;fill-opacity:1">
	<path
   class="st0"
   d="M186.4,35.2c1.2-0.3,3.2-0.7,8,1.4c-0.8-1.2-2.4-2-3.2-2.8c-0.9-1.1-1.1-1.9-3.2-2.8c-1.7-0.8-5.1,0.1-7-0.1   c-3-0.2-8.2-2.3-17.6-0.8s-30.1,5.5-30.1,5.5s-1.7,3.9,3.9,1.7s15.7-2.2,20.6-0.2c2.2,0.8,4.1,2.2,5.6,4c2.2,2.4,4.6,13.5,7.1,15   c1.2,0.7,6.1-7,8.7-11.5c2.5,1.7,5.4,3,8.4,3.7c0.5,0.1-2-8.8-3.1-12.3C185.1,35.6,185.7,35.4,186.4,35.2z"
   id="path12"
   style="fill:#ffffff;fill-opacity:1" />
</g>
<metadata
   id="metadata251"><rdf:RDF><cc:Work
       rdf:about=""><dc:title>birds</dc:title></cc:Work></rdf:RDF></metadata></svg>
