<?xml version="1.0" encoding="UTF-8" standalone="no"?>
<!-- Created with Inkscape (http://www.inkscape.org/) -->

<svg
   width="60"
   height="60"
   viewBox="0 0 15.875 15.875"
   version="1.1"
   id="svg5"
   xml:space="preserve"
   inkscape:version="1.2.2 (1:1.2.2+202305151914+b0a8486541)"
   sodipodi:docname="close.svg"
   xmlns:inkscape="http://www.inkscape.org/namespaces/inkscape"
   xmlns:sodipodi="http://sodipodi.sourceforge.net/DTD/sodipodi-0.dtd"
   xmlns="http://www.w3.org/2000/svg"
   xmlns:svg="http://www.w3.org/2000/svg"><sodipodi:namedview
     id="namedview7"
     pagecolor="#ffffff"
     bordercolor="#cccccc"
     borderopacity="1"
     inkscape:showpageshadow="0"
     inkscape:pageopacity="0"
     inkscape:pagecheckerboard="0"
     inkscape:deskcolor="#d1d1d1"
     inkscape:document-units="px"
     showgrid="false"
     inkscape:zoom="3.6445661"
     inkscape:cx="22.362058"
     inkscape:cy="44.175355"
     inkscape:window-width="1920"
     inkscape:window-height="1043"
     inkscape:window-x="1366"
     inkscape:window-y="0"
     inkscape:window-maximized="1"
     inkscape:current-layer="g2063" /><defs
     id="defs2" /><g
     inkscape:label="Layer 1"
     inkscape:groupmode="layer"
     id="layer1"><g
       id="g2059"
       transform="translate(-38.796988,-70.612909)"><g
         id="g2063"
         transform="translate(-5.0276198,-5.5095428)"><ellipse
           style="fill:#000000;stroke:#ffffff;stroke-width:0.444185;stroke-dasharray:none;stroke-opacity:1;fill-opacity:1"
           id="path775"
           cx="51.762108"
           cy="84.059952"
           rx="7.7154078"
           ry="7.7154074" /><path
           style="fill:#ffffff;stroke-width:0.0138404"
           d="m 54.049498,86.954052 c -0.03044,-0.01003 -0.0709,-0.02623 -0.08993,-0.036 -0.01902,-0.0098 -0.523549,-0.506397 -1.12117,-1.10361 l -1.086583,-1.085844 -1.064724,1.052867 c -1.133306,1.120685 -1.116229,1.105564 -1.283335,1.136384 -0.28375,0.05233 -0.553792,-0.181676 -0.552058,-0.478397 0.0011,-0.189387 0.03863,-0.247434 0.371714,-0.574962 0.135724,-0.133462 0.606694,-0.599591 1.046599,-1.035844 l 0.799828,-0.793186 -1.063733,-1.068751 c -1.20535,-1.211039 -1.131407,-1.122988 -1.130061,-1.345671 5.89e-4,-0.09708 0.0074,-0.139175 0.03069,-0.190507 0.04154,-0.09143 0.139626,-0.191681 0.234495,-0.239672 0.07064,-0.03573 0.09441,-0.04044 0.204445,-0.04051 0.227098,-1.37e-4 0.143243,-0.07088 1.352738,1.141163 l 1.062207,1.064443 1.068348,-1.058154 c 1.216527,-1.204919 1.148219,-1.147528 1.365796,-1.147528 0.105442,0 0.128048,0.0049 0.209782,0.04513 0.106612,0.05253 0.179778,0.12759 0.23106,0.237048 0.03059,0.06529 0.03639,0.09675 0.03606,0.195506 -3.53e-4,0.09834 -0.0066,0.131023 -0.03795,0.19876 -0.04388,0.09475 -0.02064,0.07087 -1.289792,1.324763 -0.486984,0.481127 -0.887728,0.881027 -0.890541,0.888667 -0.0028,0.0076 0.477269,0.497647 1.066851,1.088904 1.21528,1.218733 1.151618,1.143624 1.151754,1.358858 7.8e-5,0.09861 -0.0059,0.130434 -0.03673,0.196269 -0.04903,0.104664 -0.135916,0.19635 -0.229517,0.242182 -0.09097,0.04454 -0.264218,0.05801 -0.356243,0.02769 z"
           id="path294"
           sodipodi:nodetypes="ssscssssscscsssscsssscsscscsss" /></g></g></g></svg>
